<svg width="19" height="18" viewBox="0 0 19 18" fill="none" xmlns="http://www.w3.org/2000/svg">
<path d="M1.9 18C1.3775 18 0.930367 17.8146 0.5586 17.4439C0.1862 17.0725 0 16.6263 0 16.1053V5.68421C0 5.16316 0.1862 4.71726 0.5586 4.34653C0.930367 3.97516 1.3775 3.78947 1.9 3.78947H5.7V1.89474C5.7 1.37368 5.8862 0.927474 6.2586 0.556105C6.63037 0.185368 7.0775 0 7.6 0H11.4C11.9225 0 12.37 0.185368 12.7423 0.556105C13.1141 0.927474 13.3 1.37368 13.3 1.89474V3.78947H17.1C17.6225 3.78947 18.07 3.97516 18.4424 4.34653C18.8141 4.71726 19 5.16316 19 5.68421V16.1053C19 16.6263 18.8141 17.0725 18.4424 17.4439C18.07 17.8146 17.6225 18 17.1 18H1.9ZM7.6 3.78947H11.4V1.89474H7.6V3.78947Z" fill="#156075"/>
</svg>
