<?xml version="1.0" standalone="no"?>
<!DOCTYPE svg PUBLIC "-//W3C//DTD SVG 20010904//EN"
 "http://www.w3.org/TR/2001/REC-SVG-20010904/DTD/svg10.dtd">
<svg version="1.0" xmlns="http://www.w3.org/2000/svg"
 width="1024.000000pt" height="1024.000000pt" viewBox="0 0 1024.000000 1024.000000"
 preserveAspectRatio="xMidYMid meet">
<metadata>
Created by potrace 1.14, written by Peter Selinger 2001-2017
</metadata>
<g transform="translate(0.000000,1024.000000) scale(0.100000,-0.100000)"
fill="#000000" stroke="none">
<path d="M0 5120 l0 -5120 5120 0 5120 0 0 5120 0 5120 -5120 0 -5120 0 0
-5120z m5281 4420 c908 -71 1661 -381 2345 -967 138 -118 399 -378 509 -508
171 -200 336 -434 459 -649 67 -115 146 -271 146 -286 0 -7 -291 -10 -889 -10
l-889 0 -168 168 c-170 168 -296 273 -454 374 -299 192 -628 313 -1005 370
-142 21 -616 18 -780 -5 -659 -94 -1220 -419 -1657 -963 -314 -391 -507 -893
-559 -1457 -17 -190 -7 -605 21 -781 87 -570 320 -1045 700 -1427 387 -389
862 -651 1365 -753 214 -43 299 -51 555 -51 275 1 388 14 620 71 204 50 405
126 396 149 -2 7 -199 264 -438 571 -239 307 -552 711 -696 897 l-262 337 913
0 913 0 343 -445 c189 -245 347 -443 351 -440 17 11 152 246 205 358 67 141
115 265 160 412 l33 110 782 3 781 2 -6 -37 c-132 -775 -427 -1412 -929 -2007
l-75 -89 33 -41 c88 -110 1356 -1756 1356 -1761 0 -3 -406 -5 -902 -5 l-903 1
-344 445 c-190 245 -350 449 -356 454 -7 6 -37 -4 -86 -30 -578 -302 -1284
-457 -1999 -437 -982 28 -1777 309 -2497 886 -193 154 -489 453 -665 673 -495
615 -784 1298 -889 2098 -27 209 -38 697 -20 913 46 548 171 1016 397 1486
412 856 1068 1518 1929 1949 476 238 994 381 1525 421 157 12 479 12 631 1z"/>
</g>
</svg>
